<?xml version="1.0" encoding="utf-8"?>
<!-- Generator: Adobe Illustrator 25.3.0, SVG Export Plug-In . SVG Version: 6.00 Build 0)  -->
<svg version="1.1" id="Layer_1" xmlns="http://www.w3.org/2000/svg" xmlns:xlink="http://www.w3.org/1999/xlink" x="0px" y="0px"
	 viewBox="0 0 100 100" style="enable-background:new 0 0 100 100;" xml:space="preserve">
<style type="text/css">
	.st0{fill:#33475B;}
	.st1{fill:#EC4B46;}
</style>
<desc>Created with Sketch.</desc>
<path class="st0" d="M58.7,36.3h-7.1l2.1,11.2L50,51l-3.7-3.5l2.1-11.2h-7.2c-2.1,0-3.9,1.7-3.9,3.9v13.8h25.4V40.2
	C62.6,38.1,60.9,36.3,58.7,36.3z"/>
<circle class="st0" cx="49.9" cy="24.7" r="8.9"/>
<path class="st0" d="M47,66.1L47,79c-1.8,1-3.1,3.1-3.1,5.3c0,3.4,2.7,6.1,6.1,6.1c3.4,0,6.1-2.7,6.1-6.1c0-2.3-1.3-4.2-3.1-5.3
	l0-12.8l26.3,0l0,12.8c-1.8,1-3.1,3.1-3.1,5.3c0,3.4,2.7,6.1,6.1,6.1c3.4,0,6.1-2.7,6.1-6.1c0-2.3-1.3-4.2-3.1-5.3l0-15.9
	c0-1.7-1.4-3.1-3.1-3.1L17.5,60c-1.7,0-3.1,1.4-3.1,3.1l0,15.9c-1.8,1-3.1,3.1-3.1,5.3c0,3.4,2.7,6.1,6.1,6.1s6.1-2.7,6.1-6.1
	c0-2.3-1.3-4.2-3.1-5.3l0-12.8L47,66.1z"/>
<g transform="translate(0,-952.36218)">
	<path class="st1" d="M90.1,1036.3c0-4.1-3.3-7.4-7.4-7.4c-4.1,0-7.4,3.3-7.4,7.4c0,4.1,3.3,7.4,7.4,7.4
		C86.8,1043.7,90.1,1040.4,90.1,1036.3z"/>
</g>
<g transform="translate(0,-952.36218)">
	<path class="st1" d="M57.4,1036.3c0-4.1-3.3-7.4-7.4-7.4s-7.4,3.3-7.4,7.4c0,4.1,3.3,7.4,7.4,7.4S57.4,1040.4,57.4,1036.3z"/>
</g>
<g transform="translate(0,-952.36218)">
	<path class="st1" d="M24.7,1036.4c0-4.1-3.3-7.4-7.4-7.4s-7.4,3.3-7.4,7.4c0,4.1,3.3,7.4,7.4,7.4S24.7,1040.4,24.7,1036.4z"/>
</g>
</svg>
